<svg xmlns="http://www.w3.org/2000/svg" width="137.594" height="137.598" viewBox="0 0 137.594 137.598">
  <path id="Path_52" data-name="Path 52" d="M3000.1,1369.575c-.029-.309-.088-.61-.131-.914-.055-.385-.1-.772-.176-1.152-.071-.356-.169-.7-.257-1.05-.083-.325-.154-.656-.252-.979-.1-.347-.235-.679-.356-1.019-.114-.318-.219-.639-.349-.953s-.29-.629-.437-.943-.292-.639-.458-.953-.349-.594-.527-.891-.352-.608-.549-.9c-.226-.34-.475-.656-.72-.981-.176-.233-.335-.473-.523-.7a21.539,21.539,0,0,0-2.993-2.993c-.23-.19-.477-.356-.715-.535-.318-.24-.629-.485-.96-.708-.3-.2-.618-.378-.926-.561-.287-.173-.57-.354-.865-.513-.321-.171-.651-.316-.979-.47-.3-.145-.606-.3-.917-.425s-.648-.24-.976-.356-.658-.247-1-.352-.667-.173-1-.257-.677-.181-1.024-.249c-.392-.078-.786-.126-1.181-.181-.3-.043-.589-.1-.888-.128-.705-.069-1.413-.107-2.119-.107H2884a21.378,21.378,0,0,0-21.378,21.378h0A21.378,21.378,0,0,0,2884,1393.061h43.229l-58.343,58.347a21.372,21.372,0,0,0-.007,30.226l.007.007a21.377,21.377,0,0,0,30.231,0l58.343-58.343v43.227a21.375,21.375,0,0,0,21.376,21.378h0a21.377,21.377,0,0,0,21.378-21.376v-94.835A21.079,21.079,0,0,0,3000.1,1369.575Z" transform="translate(-2862.617 -1350.305)" fill="#be00ec" style="mix-blend-mode: multiply;isolation: isolate"/>
</svg>
