<svg xmlns="http://www.w3.org/2000/svg" viewBox="0 0 351.76 977.6"><defs><style>.cls-1{isolation:isolate;}.cls-2{fill:#ec00b6;}.cls-2,.cls-3{mix-blend-mode:multiply;}.cls-3{fill:#ff8b00;}</style></defs><g class="cls-1"><g id="Layer_2" data-name="Layer 2"><g id="Layer_1-2" data-name="Layer 1"><path id="Path_60" data-name="Path 60" class="cls-2" d="M322.71,0H91.54A29,29,0,0,0,62.49,29.05V591.4a29,29,0,0,0,29.05,29H322.71a29,29,0,0,0,29.05-29V29A29,29,0,0,0,322.71,0ZM79.26,404.21a2.91,2.91,0,0,1-2.91-2.91h0a2.91,2.91,0,0,1,2.91-2.91h0a2.91,2.91,0,0,1,2.92,2.91h0a2.91,2.91,0,0,1-2.92,2.91Zm0-93.1a2.91,2.91,0,0,1-2.91-2.91h0a2.91,2.91,0,0,1,2.91-2.91h0a2.91,2.91,0,0,1,2.92,2.91h0a2.91,2.91,0,0,1-2.91,2.91Zm0-115.61a2.91,2.91,0,0,1-2.91-2.91h0a2.91,2.91,0,0,1,2.91-2.92h0a2.92,2.92,0,0,1,2.92,2.92h0a2.91,2.91,0,0,1-2.91,2.91Zm0-93.1a2.91,2.91,0,0,1-2.91-2.91h0a2.92,2.92,0,0,1,2.91-2.92h0a2.92,2.92,0,0,1,2.92,2.92h0a2.91,2.91,0,0,1-2.91,2.91ZM99.57,597.65a14.71,14.71,0,1,1,14.71-14.71h0A14.71,14.71,0,0,1,99.57,597.65Zm0-553.77a14.71,14.71,0,0,1,0-29.42h0a14.71,14.71,0,1,1,0,29.42ZM315.48,597.65a14.71,14.71,0,1,1,14.71-14.71h0A14.71,14.71,0,0,1,315.48,597.65Zm0-281.74a2.92,2.92,0,0,1,2.92,2.91h0a2.92,2.92,0,0,1-2.92,2.92h0a2.92,2.92,0,0,1-2.91-2.92h0a2.91,2.91,0,0,1,2.91-2.91Zm-2.91-90.18a2.91,2.91,0,0,1,2.91-2.92h0a2.92,2.92,0,0,1,2.92,2.92h0a2.92,2.92,0,0,1-2.92,2.91h0a2.92,2.92,0,0,1-2.91-2.91Zm2.91,205.8a2.91,2.91,0,0,1,2.92,2.91h0a2.91,2.91,0,0,1-2.92,2.91h0a2.91,2.91,0,0,1-2.91-2.91h0a2.91,2.91,0,0,1,2.91-2.91Zm0,93.1a2.91,2.91,0,1,1-2.91,2.91,2.91,2.91,0,0,1,2.91-2.91h0Zm0-480.75a14.71,14.71,0,1,1,14.71-14.71,14.71,14.71,0,0,1-14.71,14.71Z"/><path id="Path_61" data-name="Path 61" class="cls-3" d="M338.45,365.68l-133.06-73a25.52,25.52,0,0,0-12.32-3.16H25.63A25.63,25.63,0,0,0,0,315.16H0V879a25.66,25.66,0,0,0,13.3,22.48l133.06,73a25.55,25.55,0,0,0,12.33,3.15H326.12A25.62,25.62,0,0,0,351.75,952V388.15A25.63,25.63,0,0,0,338.45,365.68Zm-317.37,101a4.86,4.86,0,1,1-4.85,4.85h0a4.85,4.85,0,0,1,4.85-4.85Zm0,196.73a4.86,4.86,0,1,1-4.85,4.86,4.86,4.86,0,0,1,4.85-4.86ZM16.23,842.64a4.85,4.85,0,1,1,4.85,4.85,4.85,4.85,0,0,1-4.85-4.85Zm14.34,50.47A11.39,11.39,0,1,1,42,881.72a11.39,11.39,0,0,1-11.39,11.39ZM32.47,333a11.39,11.39,0,1,1,11.39-11.39A11.39,11.39,0,0,1,32.47,333ZM321.19,966.78a11.39,11.39,0,1,1,11.39-11.39h0a11.39,11.39,0,0,1-11.39,11.39Zm6.75-129a4.86,4.86,0,1,1,4.85-4.86,4.86,4.86,0,0,1-4.85,4.86Zm0-174.42a4.86,4.86,0,1,1,4.85-4.85h0a4.85,4.85,0,0,1-4.85,4.85Zm0-196.73a4.85,4.85,0,0,1-4.85-4.85h0a4.86,4.86,0,0,1,4.85-4.86h0a4.86,4.86,0,0,1,4.85,4.86h0a4.85,4.85,0,0,1-4.85,4.85Zm-4.85-60a11.39,11.39,0,0,1-11.39-11.39h0a11.39,11.39,0,1,1,11.39,11.39Z"/></g></g></g></svg>