<svg xmlns="http://www.w3.org/2000/svg" viewBox="0 0 353.4 452.15"><defs><style>.cls-1{isolation:isolate;}.cls-2{fill:#9dff00;mix-blend-mode:multiply;}</style></defs><g class="cls-1"><g id="Layer_2" data-name="Layer 2"><g id="Layer_1-2" data-name="Layer 1"><path id="Path_88" data-name="Path 88" class="cls-2" d="M173.43,38.66H19.36A19.35,19.35,0,0,0,0,58V432.8a19.35,19.35,0,0,0,19.36,19.35H173.43a19.35,19.35,0,0,0,19.35-19.35V58A19.35,19.35,0,0,0,173.43,38.66ZM11.18,308.05a1.95,1.95,0,1,1,1.94-1.95h0A2,2,0,0,1,11.18,308.05Zm0-62.05a1.94,1.94,0,1,1,1.94-1.94h0A1.94,1.94,0,0,1,11.18,246Zm0-77.05A1.94,1.94,0,1,1,13.12,167h0A1.94,1.94,0,0,1,11.18,169Zm0-62A1.94,1.94,0,1,1,13.12,105h0a1.94,1.94,0,0,1-1.94,1.94ZM24.72,437a9.8,9.8,0,1,1,9.8-9.8,9.8,9.8,0,0,1-9.8,9.8Zm0-369.06a9.8,9.8,0,1,1,9.8-9.8,9.8,9.8,0,0,1-9.8,9.8ZM168.61,437a9.8,9.8,0,1,1,9.8-9.8h0a9.8,9.8,0,0,1-9.8,9.8Zm0-187.76a1.94,1.94,0,1,1-1.94,1.94h0a1.94,1.94,0,0,1,1.94-1.94Zm-1.94-60.11a1.94,1.94,0,1,1,1.94,1.94h0a1.94,1.94,0,0,1-1.94-1.94Zm1.94,137.16a1.94,1.94,0,1,1-1.94,1.94h0a1.94,1.94,0,0,1,1.94-1.94Zm0,62.05a1.94,1.94,0,1,1-1.94,1.94h0a1.94,1.94,0,0,1,1.94-1.95Zm0-320.4a9.8,9.8,0,1,1,9.8-9.81h0a9.8,9.8,0,0,1-9.8,9.8Z"/><path id="Path_89" data-name="Path 89" class="cls-2" d="M334,0H180a19.35,19.35,0,0,0-19.35,19.36V394.14A19.35,19.35,0,0,0,180,413.5H334a19.36,19.36,0,0,0,19.36-19.36V19.36A19.36,19.36,0,0,0,334,0ZM171.79,269.39a1.94,1.94,0,1,1,2-1.94h0A1.94,1.94,0,0,1,171.79,269.39Zm0-62a1.94,1.94,0,1,1,2-1.94h0A1.94,1.94,0,0,1,171.79,207.34Zm0-77.05a1.94,1.94,0,1,1,2-1.94h0a1.94,1.94,0,0,1-2,1.94Zm0-62a1.95,1.95,0,1,1,2-2h0a2,2,0,0,1-2,2Zm13.54,330.06a9.8,9.8,0,1,1,9.8-9.8,9.8,9.8,0,0,1-9.8,9.8Zm0-369.07a9.8,9.8,0,1,1,9.8-9.8,9.8,9.8,0,0,1-9.8,9.8Zm143.9,369.07a9.8,9.8,0,1,1,9.8-9.8h0a9.8,9.8,0,0,1-9.8,9.8Zm0-187.77a1.94,1.94,0,1,1-1.94,1.94h0a1.94,1.94,0,0,1,1.94-1.94Zm-1.94-60.1a1.94,1.94,0,1,1,1.94,1.94h0a2,2,0,0,1-2-1.94h0Zm1.94,137.15a1.95,1.95,0,1,1-1.94,2h0a1.94,1.94,0,0,1,1.94-2Zm0,62.05a1.94,1.94,0,1,1-1.94,1.94h0a1.94,1.94,0,0,1,1.94-1.94Zm0-320.4a9.8,9.8,0,1,1,9.8-9.8h0a9.8,9.8,0,0,1-9.8,9.8Z"/></g></g></g></svg>