<svg xmlns="http://www.w3.org/2000/svg" viewBox="0 0 650.7 665.17"><defs><style>.cls-1{isolation:isolate;}.cls-2{fill:#00baff;}.cls-2,.cls-3{mix-blend-mode:multiply;}.cls-3{fill:#9dff00;}</style></defs><g class="cls-1"><g id="Layer_2" data-name="Layer 2"><g id="Layer_1-2" data-name="Layer 1"><path id="Path_4" data-name="Path 4" class="cls-2" d="M58.61,635.87V29.3A29.3,29.3,0,0,0,29.3,0h0A29.3,29.3,0,0,0,0,29.3H0V635.87a29.3,29.3,0,0,0,29.3,29.3h0a29.3,29.3,0,0,0,29.31-29.3ZM14.39,29.3A14.92,14.92,0,0,1,29.31,14.39h0A14.92,14.92,0,1,1,14.39,29.3Zm0,159.1a14.92,14.92,0,0,1,14.92-14.91h0A14.91,14.91,0,1,1,14.39,188.4Zm0,159.1A14.91,14.91,0,0,1,29.3,332.59h0A14.91,14.91,0,0,1,44.22,347.5h0a14.92,14.92,0,0,1-29.83,0Zm0,144.18a14.92,14.92,0,0,1,14.92-14.91h0a14.91,14.91,0,1,1-14.92,14.91Zm0,144.19a14.92,14.92,0,0,1,29.83,0h0a14.92,14.92,0,0,1-29.83,0Z"/><path id="Path_27" data-name="Path 27" class="cls-3" d="M43,246,629,88.89A29.31,29.31,0,0,0,649.69,53h0a29.3,29.3,0,0,0-35.9-20.72h0L27.85,189.37a29.31,29.31,0,0,0-20.72,35.9h0A29.31,29.31,0,0,0,43,246ZM617.52,46.17a14.92,14.92,0,0,1,18.27,10.55h0a14.91,14.91,0,1,1-18.27-10.55ZM463.83,87.38A14.92,14.92,0,0,1,482.1,97.92h0a14.91,14.91,0,1,1-18.27-10.54ZM310.14,128.59a14.9,14.9,0,0,1,18.27,10.54h0a14.92,14.92,0,0,1-10.54,18.27h0a14.91,14.91,0,1,1-7.73-28.81ZM170.86,165.93a14.92,14.92,0,0,1,18.27,10.54h0a14.91,14.91,0,1,1-18.27-10.54ZM31.58,203.27a14.92,14.92,0,1,1,7.72,28.82h0a14.92,14.92,0,0,1-7.72-28.82Z"/></g></g></g></svg>