<svg xmlns="http://www.w3.org/2000/svg" viewBox="0 0 289.26 620.44"><defs><style>.cls-1{isolation:isolate;}.cls-2{fill:#9dff00;mix-blend-mode:multiply;}</style></defs><g class="cls-1"><g id="Layer_2" data-name="Layer 2"><g id="Layer_1-2" data-name="Layer 1"><path id="Path_59" data-name="Path 59" class="cls-2" d="M260.22,0H29A29,29,0,0,0,0,29.05V591.4a29,29,0,0,0,29,29H260.22a29,29,0,0,0,29-29V29.05A29,29,0,0,0,260.22,0ZM16.78,404.21a2.91,2.91,0,0,1-2.92-2.91h0a2.91,2.91,0,0,1,2.92-2.91h0a2.91,2.91,0,0,1,2.91,2.91h0a2.91,2.91,0,0,1-2.91,2.91Zm0-93.1a2.91,2.91,0,0,1-2.92-2.91h0a2.91,2.91,0,0,1,2.92-2.91h0a2.91,2.91,0,0,1,2.91,2.91h0a2.91,2.91,0,0,1-2.91,2.91Zm0-115.61a2.91,2.91,0,0,1-2.92-2.91h0a2.92,2.92,0,0,1,2.92-2.92h0a2.92,2.92,0,0,1,2.91,2.92h0a2.91,2.91,0,0,1-2.91,2.91Zm0-93.1a2.91,2.91,0,0,1-2.92-2.91h0a2.91,2.91,0,0,1,2.92-2.91h0a2.91,2.91,0,0,1,2.91,2.91h0a2.91,2.91,0,0,1-2.91,2.91ZM37.09,597.64A14.71,14.71,0,1,1,51.8,582.93h0a14.72,14.72,0,0,1-14.71,14.72h0Zm0-553.77A14.71,14.71,0,1,1,51.8,29.17a14.71,14.71,0,0,1-14.71,14.7ZM253,597.64a14.71,14.71,0,1,1,14.7-14.71h0A14.71,14.71,0,0,1,253,597.65h0Zm0-281.73a2.91,2.91,0,0,1,2.91,2.91h0a2.91,2.91,0,0,1-2.91,2.91h0a2.91,2.91,0,0,1-2.92-2.91h0a2.92,2.92,0,0,1,2.92-2.91Zm-2.92-90.19a2.91,2.91,0,0,1,2.92-2.91h0a2.91,2.91,0,0,1,2.91,2.91h0a2.91,2.91,0,0,1-2.91,2.91h0a2.92,2.92,0,0,1-2.92-2.9ZM253,431.52a2.92,2.92,0,1,1-2.92,2.91,2.92,2.92,0,0,1,2.92-2.91Zm0,93.1a2.92,2.92,0,1,1-2.92,2.91,2.92,2.92,0,0,1,2.92-2.91Zm0-480.74a14.71,14.71,0,1,1,14.7-14.71h0A14.7,14.7,0,0,1,253,43.87Z"/></g></g></g></svg>