<svg xmlns="http://www.w3.org/2000/svg" viewBox="0 0 58.61 665.17"><defs><style>.cls-1{isolation:isolate;}.cls-2{fill:#ffce00;mix-blend-mode:multiply;}</style></defs><g class="cls-1"><g id="Layer_2" data-name="Layer 2"><g id="Layer_1-2" data-name="Layer 1"><path id="Path_7" data-name="Path 7" class="cls-2" d="M58.61,635.87V29.3A29.3,29.3,0,0,0,29.3,0h0A29.3,29.3,0,0,0,0,29.3H0V635.87a29.3,29.3,0,0,0,29.3,29.3h0a29.3,29.3,0,0,0,29.31-29.3ZM14.39,29.3A14.92,14.92,0,0,1,29.31,14.39h0A14.92,14.92,0,1,1,14.39,29.3Zm0,159.1a14.92,14.92,0,0,1,14.92-14.91h0A14.91,14.91,0,1,1,14.39,188.4Zm0,159.1A14.91,14.91,0,0,1,29.3,332.59h0A14.91,14.91,0,0,1,44.22,347.5h0a14.92,14.92,0,0,1-29.83,0Zm0,144.18a14.92,14.92,0,0,1,14.92-14.91h0a14.91,14.91,0,1,1-14.92,14.91Zm0,144.19a14.92,14.92,0,0,1,29.83,0h0a14.92,14.92,0,0,1-29.83,0Z"/></g></g></g></svg>