<svg xmlns="http://www.w3.org/2000/svg" viewBox="0 0 638.99 153.43"><defs><style>.cls-1{isolation:isolate;}.cls-2{fill:#ec00b6;mix-blend-mode:multiply;}</style></defs><g class="cls-1"><g id="Layer_2" data-name="Layer 2"><g id="Layer_1-2" data-name="Layer 1"><path id="Path_73" data-name="Path 73" class="cls-2" d="M0,15.41V138a15.41,15.41,0,0,0,15.41,15.41H313.68A15.41,15.41,0,0,0,329.09,138h0V15.41A15.41,15.41,0,0,0,313.68,0H15.41A15.41,15.41,0,0,0,0,15.41ZM214.4,144.53a1.55,1.55,0,1,1-1.55-1.54h0a1.54,1.54,0,0,1,1.55,1.54Zm-49.38,0a1.55,1.55,0,1,1-1.55-1.54h0a1.54,1.54,0,0,1,1.55,1.54Zm-61.32,0a1.55,1.55,0,1,1-1.55-1.54h0a1.54,1.54,0,0,1,1.55,1.54Zm-49.38,0A1.55,1.55,0,1,1,52.77,143h0a1.55,1.55,0,0,1,1.55,1.54ZM317,133.76a7.8,7.8,0,1,1-7.8-7.8h0A7.8,7.8,0,0,1,317,133.76Zm-293.73,0a7.8,7.8,0,1,1-7.8-7.8,7.8,7.8,0,0,1,7.8,7.8ZM317,19.24a7.8,7.8,0,1,1-7.8-7.8h0A7.8,7.8,0,0,1,317,19.24Zm-149.44,0a1.55,1.55,0,1,1,3.09,0,1.54,1.54,0,0,1-1.54,1.54h0A1.55,1.55,0,0,1,167.56,19.24Zm-47.83,1.54a1.55,1.55,0,1,1,1.54-1.54h0a1.54,1.54,0,0,1-1.54,1.54Zm109.16-1.54a1.55,1.55,0,1,1,1.54,1.54h0a1.54,1.54,0,0,1-1.54-1.54Zm49.38,0a1.55,1.55,0,1,1,1.54,1.54,1.55,1.55,0,0,1-1.54-1.54Zm-255,0a7.8,7.8,0,1,1-7.8-7.8,7.8,7.8,0,0,1,7.8,7.8Z"/><path id="Path_74" data-name="Path 74" class="cls-2" d="M309.9,15.41V138a15.41,15.41,0,0,0,15.41,15.41H623.59A15.4,15.4,0,0,0,639,138h0V15.41A15.4,15.4,0,0,0,623.59,0H325.31A15.41,15.41,0,0,0,309.9,15.41ZM524.3,144.53a1.55,1.55,0,1,1-1.54-1.54h0a1.54,1.54,0,0,1,1.54,1.54Zm-49.38,0a1.55,1.55,0,1,1-1.54-1.54h0a1.54,1.54,0,0,1,1.54,1.54Zm-61.32,0a1.55,1.55,0,1,1-1.55-1.54h0a1.53,1.53,0,0,1,1.54,1.54Zm-49.38,0a1.55,1.55,0,1,1-1.55-1.54h0a1.54,1.54,0,0,1,1.54,1.54ZM626.9,133.76a7.8,7.8,0,1,1-7.8-7.8h0A7.8,7.8,0,0,1,626.9,133.76Zm-293.72,0a7.8,7.8,0,1,1-7.8-7.8,7.8,7.8,0,0,1,7.8,7.8ZM626.9,19.24a7.8,7.8,0,1,1-7.8-7.8h0A7.8,7.8,0,0,1,626.9,19.24Zm-149.43,0A1.55,1.55,0,1,1,479,20.78h0A1.54,1.54,0,0,1,477.47,19.24Zm-47.84,1.54a1.55,1.55,0,0,1,0-3.09,1.56,1.56,0,0,1,1.55,1.55h0a1.54,1.54,0,0,1-1.55,1.54Zm109.16-1.54a1.55,1.55,0,1,1,1.55,1.54h0a1.54,1.54,0,0,1-1.55-1.54Zm49.38,0a1.55,1.55,0,1,1,1.55,1.54,1.55,1.55,0,0,1-1.55-1.54Zm-255,0a7.8,7.8,0,1,1-7.8-7.8,7.8,7.8,0,0,1,7.8,7.8Z"/></g></g></g></svg>