<svg xmlns="http://www.w3.org/2000/svg" viewBox="0 0 761.45 212.25"><defs><style>.cls-1{isolation:isolate;}.cls-2{fill:none;stroke:#be00ec;stroke-width:20px;}.cls-2,.cls-3,.cls-4{mix-blend-mode:multiply;}.cls-3{fill:#0049ff;stroke:#0049ff;stroke-width:2px;}.cls-4{fill:#ff006c;}</style></defs><g class="cls-1"><g id="Layer_2" data-name="Layer 2"><g id="Layer_1-2" data-name="Layer 1"><path id="Path_16" data-name="Path 16" class="cls-2" d="M751.32,61.5c0-.36-.1-.7-.15-1.06s-.12-.89-.2-1.33-.2-.81-.3-1.21-.18-.76-.29-1.13-.27-.78-.41-1.18-.26-.73-.4-1.1-.34-.72-.5-1.09-.34-.73-.53-1.1-.4-.68-.61-1-.41-.7-.64-1-.54-.76-.83-1.14-.38-.54-.6-.8a24.53,24.53,0,0,0-3.45-3.46c-.27-.22-.55-.41-.83-.62s-.73-.55-1.11-.81-.71-.44-1.07-.65-.65-.41-1-.59-.75-.37-1.13-.54-.7-.35-1.06-.5-.74-.27-1.12-.41-.76-.28-1.15-.4-.77-.2-1.16-.3-.78-.21-1.18-.29-.91-.15-1.37-.21l-1-.15c-.82-.08-1.63-.12-2.45-.12H617.25a24.68,24.68,0,0,0-24.68,24.69h0a24.67,24.67,0,0,0,24.68,24.68h49.92L599.8,156a24.68,24.68,0,0,0,0,34.9h0a24.69,24.69,0,0,0,34.91,0l67.37-67.37v49.92a24.68,24.68,0,0,0,24.68,24.68h0a24.7,24.7,0,0,0,24.69-24.68h0V63.94C751.44,63.13,751.4,62.31,751.32,61.5Z"/><path id="Path_53" data-name="Path 53" class="cls-3" d="M492.69,78.15A72.49,72.49,0,0,0,480,70a2.94,2.94,0,0,1-.7-4.8,36.66,36.66,0,1,0-48.73,0,2.93,2.93,0,0,1,.18,4.15h0a3,3,0,0,1-.88.65,72,72,0,0,0-12.71,8.14,15.67,15.67,0,0,0-5.93,12.31v48.3A15.77,15.77,0,0,0,427,154.53h0a1.81,1.81,0,0,1,1.81,1.81V195a16.08,16.08,0,0,0,15.1,16.2,15.71,15.71,0,0,0,11-3.89,15.71,15.71,0,0,0,11,3.89A16.06,16.06,0,0,0,481,195V156.35a1.82,1.82,0,0,1,1.82-1.82h0a15.76,15.76,0,0,0,15.76-15.76h0V90.47A15.67,15.67,0,0,0,492.69,78.15ZM429,37.55a25.91,25.91,0,0,1,26.2-25.62h0a25.9,25.9,0,0,1,25.61,26.2h0A25.91,25.91,0,1,1,429,37.55Zm58.8,101.22a5,5,0,0,1-4.95,4.95h0A1.81,1.81,0,0,1,481,141.9h0V111.28a5.57,5.57,0,0,0-4.88-5.61,5.41,5.41,0,0,0-5.92,4.85h0a4.7,4.7,0,0,0,0,.53v84.2a5.11,5.11,0,0,1-4.46,5.15,5,5,0,0,1-5.41-4.44h0a4.15,4.15,0,0,1,0-.49V111.28a5.56,5.56,0,0,0-4.88-5.61,5.4,5.4,0,0,0-5.91,4.85h0a4.84,4.84,0,0,0,0,.53v84.2a5.1,5.1,0,0,1-4.45,5.15,5,5,0,0,1-5.42-4.44h0c0-.16,0-.33,0-.49V111.28a5.57,5.57,0,0,0-4.88-5.61,5.42,5.42,0,0,0-5.92,4.85h0c0,.18,0,.35,0,.53V141.9a1.82,1.82,0,0,1-1.82,1.82h0a5,5,0,0,1-4.94-4.95h0V90.47a5,5,0,0,1,1.87-3.88c5.64-4.5,17.15-12,31-12s25.37,7.53,31,12a5,5,0,0,1,1.88,3.89Z"/><path id="Path_54" data-name="Path 54" class="cls-4" d="M103.07,10A96.75,96.75,0,1,0,193.3,112.82a98.88,98.88,0,0,0,0-12.65A96.86,96.86,0,0,0,103.07,10ZM176,106c-.12.17-.27.32-.4.51-3.84,6.1-11,10.33-20.32,12.63a2.73,2.73,0,0,1-3.28-2h0a2.65,2.65,0,0,1,0-1.34c7.57-27.71,5.21-53.83-5.47-70.8A79.08,79.08,0,0,1,176,106Zm-72.72,10.12a2.74,2.74,0,0,1-1.85-3.4l.06-.2.14-.37C113.34,81,122,60.56,127.41,49c11.72,11.51,16.17,38.67,5.21,70a2.76,2.76,0,0,1-2.77,1.85,129.17,129.17,0,0,1-26.6-4.81Zm4.66-66.52c-6.19,14-14.25,34-22.69,56.37l-.12.33a2.76,2.76,0,0,1-3.53,1.61h0l-.2-.09a139.53,139.53,0,0,1-19.31-11.1l-1-3.28C72,65.72,90,48.56,105.43,44.17a2.74,2.74,0,0,1,3.35,1.94h0a2.75,2.75,0,0,1-.15,1.83c-.24.52-.48,1.06-.72,1.61Zm-32.25,74.9a2.75,2.75,0,0,1,1.45,3.43c-4.79,13.29-8.76,24.94-11.68,34.34l0,.06a2.76,2.76,0,0,1-3.45,1.8,2.79,2.79,0,0,1-1.52-1.18c-6.43-10.14-9.23-26.47-6-45.69a2.73,2.73,0,0,1,3.15-2.27h0a2.63,2.63,0,0,1,1,.36,158.86,158.86,0,0,0,17.13,9.14Zm5.72,45.47c2.54-8.34,6.4-20,12.09-35.78a2.76,2.76,0,0,1,3.39-1.7,148.56,148.56,0,0,0,23.22,5.05,2.75,2.75,0,0,1,2.34,3.1h0a2.82,2.82,0,0,1-.39,1.06c-11,18.12-25.18,29.1-37.44,31.76a2.76,2.76,0,0,1-3.27-2.1h0a2.73,2.73,0,0,1,.06-1.39ZM96.76,27.27c1.13,0,2.25,0,3.36.08-20,5.88-39.7,25.09-52.28,52.47a2.76,2.76,0,0,1-4.53.66A62.85,62.85,0,0,1,31.89,63.26a2.77,2.77,0,0,1,.3-2.64A79.17,79.17,0,0,1,96.75,27.27ZM17.52,106.5a78.76,78.76,0,0,1,2.53-19.8,2.75,2.75,0,0,1,4.88-1,106.31,106.31,0,0,0,13.72,14.81,2.75,2.75,0,0,1,.83,2.72c-4.37,16.93-5,33.2-2.32,47.07a2.74,2.74,0,0,1-4.93,2.1A78.74,78.74,0,0,1,17.52,106.5Zm95,72.29c11.7-9,22.4-22.44,30.44-39a2.73,2.73,0,0,1,2.24-1.53,82.71,82.71,0,0,0,21-4.34,2.74,2.74,0,0,1,3.41,3.69,79.5,79.5,0,0,1-54.74,46,2.74,2.74,0,0,1-2.34-4.83Z"/></g></g></g></svg>