<svg xmlns="http://www.w3.org/2000/svg" viewBox="0 0 749.88 186.24"><defs><style>.cls-1{fill:none;stroke:#ecbf00;stroke-width:20px;}.cls-2{fill:#99f800;stroke:#99f800;stroke-width:2px;}.cls-3{fill:#00ceff;}</style></defs><g id="Layer_2" data-name="Layer 2"><g id="Layer_1-2" data-name="Layer 1"><path id="Path_16" data-name="Path 16" class="cls-1" d="M739.8,56c0-.29-.1-.77-.14-1.06s-.1-.72-.17-1.08-.16-.65-.24-1-.15-.61-.24-.92-.22-.63-.33-.95-.2-.6-.33-.9-.27-.59-.4-.88-.27-.6-.43-.89-.33-.56-.5-.84-.33-.57-.52-.84-.44-.62-.67-.92-.31-.45-.49-.66a20.58,20.58,0,0,0-2.8-2.8c-.22-.18-.45-.34-.67-.5s-.59-.46-.9-.67-.58-.35-.87-.52-.54-.34-.81-.48-.61-.3-.92-.44-.57-.28-.86-.4-.61-.23-.92-.34-.61-.23-.93-.33-.63-.16-.94-.24-.64-.17-1-.24S723,38,722.65,38s-.55-.1-.83-.12a18.94,18.94,0,0,0-2-.1H630.91a20,20,0,0,0-20,20h0a20,20,0,0,0,20,20h30.85a4,4,0,0,1,2.84,6.84l-47.87,47.87a20,20,0,0,0,0,28.34h0a20,20,0,0,0,28.35,0h0L692.94,113a4,4,0,0,1,6.85,2.84v30.85a20,20,0,0,0,20,20h0a20,20,0,0,0,20-20h0V57.81C739.88,57.21,739.85,56.61,739.8,56Z"/><path id="Path_53" data-name="Path 53" class="cls-2" d="M496.18,68.6A63.48,63.48,0,0,0,485,61.47,2.59,2.59,0,0,1,483.85,58a2.81,2.81,0,0,1,.57-.76,32.18,32.18,0,1,0-42.7,0,2.58,2.58,0,0,1,.16,3.64,2.71,2.71,0,0,1-.77.57A63.56,63.56,0,0,0,430,68.6a13.73,13.73,0,0,0-5.19,10.79v42.33a13.82,13.82,0,0,0,13.82,13.81h0a1.59,1.59,0,0,1,1.59,1.59h0V171a14.07,14.07,0,0,0,13.23,14.2,15.39,15.39,0,0,1,19.33,0A14.07,14.07,0,0,0,486,171V137.12a1.59,1.59,0,0,1,1.59-1.59h0a13.81,13.81,0,0,0,13.81-13.82h0V79.39A13.73,13.73,0,0,0,496.18,68.6ZM440.37,33a22.83,22.83,0,1,1,0,.26V33Zm51.52,88.7a4.33,4.33,0,0,1-4.33,4.34h0a1.6,1.6,0,0,1-1.59-1.6h0V97.63a4.88,4.88,0,0,0-4.28-4.92A4.74,4.74,0,0,0,476.51,97h0c0,.16,0,.31,0,.47v73.78a4.46,4.46,0,0,1-3.9,4.5,4.34,4.34,0,0,1-4.75-3.89c0-.14,0-.28,0-.42V97.63a4.88,4.88,0,0,0-4.28-4.92A4.74,4.74,0,0,0,458.36,97h0c0,.16,0,.31,0,.47v73.78a4.46,4.46,0,0,1-3.9,4.5,4.34,4.34,0,0,1-4.75-3.89c0-.14,0-.28,0-.42V97.63a4.88,4.88,0,0,0-4.27-4.92A4.75,4.75,0,0,0,440.21,97h0c0,.16,0,.31,0,.47v27a1.59,1.59,0,0,1-1.59,1.59h0a4.35,4.35,0,0,1-4.34-4.34V79.39a4.36,4.36,0,0,1,1.65-3.4c4.94-3.95,15-10.54,27.17-10.54S485.31,72,490.25,76a4.33,4.33,0,0,1,1.65,3.4Z"/><path id="Path_54" data-name="Path 54" class="cls-3" d="M84,14.76a78.82,78.82,0,1,0,73.5,83.81,80.61,80.61,0,0,0,0-10.31A78.82,78.82,0,0,0,84,14.76ZM143.37,93c-.1.15-.23.27-.32.42-3.14,5-9,8.42-16.56,10.29a2.23,2.23,0,0,1-2.66-2.75c6.17-22.58,4.24-43.85-4.45-57.69a64.46,64.46,0,0,1,24,49.73Zm-59.24,8.25a2.23,2.23,0,0,1-1.52-2.77h0l.06-.16.11-.3c9.56-25.36,16.6-42,21-51.4,9.56,9.38,13.18,31.51,4.25,57.05a2.24,2.24,0,0,1-2.26,1.5,104.34,104.34,0,0,1-21.67-3.92ZM87.92,47c-5,11.38-11.61,27.69-18.49,45.93l-.1.26a2.23,2.23,0,0,1-2.87,1.32h0l-.16-.06a113.07,113.07,0,0,1-15.73-9l-.81-2.67c8.88-22.54,23.54-36.52,36.14-40.1a2.22,2.22,0,0,1,2.73,1.58,2.25,2.25,0,0,1-.12,1.49c-.2.43-.4.87-.59,1.31ZM61.65,108a2.24,2.24,0,0,1,1.17,2.8c-3.9,10.83-7.13,20.33-9.52,28v.05a2.24,2.24,0,0,1-2.81,1.46,2.27,2.27,0,0,1-1.24-1c-5.24-8.25-7.52-21.56-4.92-37.22a2.24,2.24,0,0,1,2.57-1.85,2.34,2.34,0,0,1,.8.29,128.69,128.69,0,0,0,14,7.46Zm4.65,37.05c2.07-6.8,5.22-16.31,9.85-29.15a2.24,2.24,0,0,1,2.76-1.38,121.32,121.32,0,0,0,18.92,4.11,2.24,2.24,0,0,1,1.59,3.39c-9,14.76-20.52,23.71-30.5,25.87a2.24,2.24,0,0,1-2.66-1.71,2.17,2.17,0,0,1,0-1.13ZM78.83,28.86c.92,0,1.83,0,2.75.07C65.32,33.72,49.23,49.37,39,71.67a2.25,2.25,0,0,1-3,1.07,2.16,2.16,0,0,1-.7-.53,50.67,50.67,0,0,1-9.3-14A2.21,2.21,0,0,1,26.23,56a64.48,64.48,0,0,1,52.6-27.18ZM14.28,93.41a64.11,64.11,0,0,1,2.06-16.13,2.24,2.24,0,0,1,4-.79A86.31,86.31,0,0,0,31.49,88.55a2.23,2.23,0,0,1,.67,2.22c-3.55,13.79-4.08,27.05-1.88,38.35a2.23,2.23,0,0,1-4,1.71,64.21,64.21,0,0,1-12-37.42Zm77.41,58.9c9.53-7.35,18.24-18.28,24.79-31.8a2.21,2.21,0,0,1,1.82-1.24,67.07,67.07,0,0,0,17.1-3.54,2.23,2.23,0,0,1,2.78,3,64.8,64.8,0,0,1-44.6,37.52,2.24,2.24,0,0,1-1.9-3.94Z"/></g></g></svg>