<svg xmlns="http://www.w3.org/2000/svg" viewBox="0 0 536.99 144.27"><defs><style>.cls-1{isolation:isolate;}.cls-2{fill:#be00ec;}.cls-2,.cls-3,.cls-4{mix-blend-mode:multiply;}.cls-3{fill:red;}.cls-5{fill:#0049ff;}</style></defs><g class="cls-1"><g id="Layer_2" data-name="Layer 2"><g id="Layer_1-2" data-name="Layer 1"><path id="Path_16" data-name="Path 16" class="cls-2" d="M536.87,20.24c0-.32-.09-.64-.13-1s-.11-.81-.19-1.21-.17-.73-.26-1.1-.17-.69-.27-1-.25-.72-.37-1.07-.23-.67-.37-1-.3-.66-.46-1-.3-.67-.48-1-.36-.62-.55-.93-.37-.64-.57-.94-.5-.69-.76-1-.35-.5-.55-.73a22.66,22.66,0,0,0-3.13-3.14c-.25-.2-.5-.38-.75-.56s-.66-.51-1-.74-.65-.4-1-.59-.6-.37-.91-.54-.68-.33-1-.49-.64-.31-1-.45-.68-.25-1-.37-.69-.26-1-.37-.7-.18-1.05-.27S519.33.55,519,.48s-.82-.14-1.23-.19-.62-.11-.93-.14c-.74-.07-1.49-.11-2.23-.11h-99.4a22.41,22.41,0,0,0,0,44.82h45.31L399.33,106a22.41,22.41,0,0,0,0,31.69h0a22.39,22.39,0,0,0,31.69,0l61.15-61.15v45.31a22.4,22.4,0,0,0,22.4,22.41h0A22.42,22.42,0,0,0,537,121.87h0V22.46A20.64,20.64,0,0,0,536.87,20.24Z"/><path id="Path_8" data-name="Path 8" class="cls-3" d="M54,.28a54,54,0,0,0-54,54H0C0,78,34.31,123.65,48.22,141.16a7.33,7.33,0,0,0,10.31,1.19,7.44,7.44,0,0,0,1.19-1.19c13.9-17.51,48.21-63.15,48.21-86.92A54,54,0,0,0,54,.28Zm0,75.59A22.38,22.38,0,0,1,31.59,53.49h0A22.37,22.37,0,0,1,54,31.12h0a22.38,22.38,0,1,1,0,44.75Z"/><g id="Group_1" data-name="Group 1" class="cls-4"><ellipse id="Ellipse_1" data-name="Ellipse 1" class="cls-5" cx="293.55" cy="110.84" rx="59.17" ry="33.42"/><ellipse id="Ellipse_2" data-name="Ellipse 2" class="cls-5" cx="293.55" cy="36.85" rx="36.51" ry="36.85"/></g></g></g></g></svg>