<svg xmlns="http://www.w3.org/2000/svg" width="244.127" height="523.628" viewBox="0 0 244.127 523.628"><path d="M4155.873-416.474h-195.1a24.513,24.513,0,0,0-24.513,24.513v474.6a24.513,24.513,0,0,0,24.513,24.513h195.1a24.513,24.513,0,0,0,24.513-24.513v-474.6A24.513,24.513,0,0,0,4155.873-416.474ZM3950.414-75.335a2.458,2.458,0,0,1-2.458-2.458,2.458,2.458,0,0,1,2.458-2.458,2.458,2.458,0,0,1,2.458,2.458A2.458,2.458,0,0,1,3950.414-75.335Zm0-78.571a2.458,2.458,0,0,1-2.458-2.458,2.457,2.457,0,0,1,2.458-2.458,2.457,2.457,0,0,1,2.458,2.458A2.458,2.458,0,0,1,3950.414-153.906Zm0-97.574a2.458,2.458,0,0,1-2.458-2.458,2.458,2.458,0,0,1,2.458-2.458,2.458,2.458,0,0,1,2.458,2.458A2.458,2.458,0,0,1,3950.414-251.479Zm0-78.571a2.458,2.458,0,0,1-2.458-2.458,2.457,2.457,0,0,1,2.458-2.458,2.457,2.457,0,0,1,2.458,2.458A2.458,2.458,0,0,1,3950.414-330.05Zm17.143,417.965A12.414,12.414,0,1,1,3979.971,75.5,12.414,12.414,0,0,1,3967.557,87.915Zm0-467.357a12.414,12.414,0,0,1-12.413-12.414,12.414,12.414,0,0,1,12.413-12.414,12.414,12.414,0,0,1,12.414,12.414A12.414,12.414,0,0,1,3967.557-379.442ZM4149.774,87.915A12.414,12.414,0,1,1,4162.188,75.5,12.415,12.415,0,0,1,4149.774,87.915Zm0-237.772a2.458,2.458,0,0,1,2.458,2.458,2.458,2.458,0,0,1-2.458,2.458,2.458,2.458,0,0,1-2.458-2.458A2.458,2.458,0,0,1,4149.774-149.857Zm-2.458-76.113a2.458,2.458,0,0,1,2.458-2.458,2.458,2.458,0,0,1,2.458,2.458,2.458,2.458,0,0,1-2.458,2.458A2.458,2.458,0,0,1,4147.316-225.97Zm2.458,173.687a2.457,2.457,0,0,1,2.458,2.458,2.458,2.458,0,0,1-2.458,2.458,2.458,2.458,0,0,1-2.458-2.458A2.457,2.457,0,0,1,4149.774-52.284Zm0,78.571a2.458,2.458,0,1,1-2.458,2.458A2.458,2.458,0,0,1,4149.774,26.287Zm0-405.729a12.415,12.415,0,0,1-12.414-12.414,12.415,12.415,0,0,1,12.414-12.414,12.414,12.414,0,0,1,12.414,12.414A12.414,12.414,0,0,1,4149.774-379.442Z" transform="translate(-3936.259 416.474)" fill="#9dff00" style="mix-blend-mode:multiply;isolation:isolate"/></svg>